<svg id="Layer_1" data-name="Layer 1" xmlns="http://www.w3.org/2000/svg" width="128" height="128" viewBox="0 0 128 128">
  <rect width="128" height="128" fill="#75AFD4"/>
  <path d="M65.29,78.73h0a6.6,6.6,0,0,1-6.59-6.6h0A9,9,0,0,1,60,66.91a31.24,31.24,0,0,1,5.89-5.42q6.93-5.33,6.93-11.28a9.49,9.49,0,0,0-2.71-7.13,9.67,9.67,0,0,0-7.05-2.64q-7.12,0-10.11,7a9,9,0,0,1-9.87,5.48l-.32-.06a2.36,2.36,0,0,1-1.92-2.7,23.05,23.05,0,0,1,7.4-14,23.49,23.49,0,0,1,16.09-5.93A22.33,22.33,0,0,1,79,35,18.94,18.94,0,0,1,85.9,49.78a18.56,18.56,0,0,1-1.69,7.53A18.09,18.09,0,0,1,80.38,63a113.88,113.88,0,0,1-9.08,7.1,7,7,0,0,0-2.49,2.76,11.2,11.2,0,0,0-.49,3A3,3,0,0,1,65.29,78.73Z" fill="#2e2e2e"/>
  <path d="M70.18,88.44V89.5a8.37,8.37,0,0,1-8.36,8.37h-.47a2.66,2.66,0,0,1-2.65-2.66V94a8.36,8.36,0,0,1,8.36-8.36h.33A2.79,2.79,0,0,1,70.18,88.44Z" fill="#2e2e2e"/>
</svg>
